<svg xmlns="http://www.w3.org/2000/svg" width="495" height="195" viewBox="0 0 495 195"><rect x="0.5" y="0.5" width="494" height="194" rx="4.5" fill="#0A1220" stroke="#1E3A5F"/><text x="25" y="35" font-family="'Fira Code','Cascadia Code','JetBrains Mono',Consolas,monospace" font-size="17" font-weight="bold" fill="#00D9FF">Anthony Cavero — GitHub Stats</text><g transform="translate(25,62)"><g transform="translate(0,-12)"><polygon points="8,1 10.2,5.8 15.2,6.3 11.4,9.7 12.5,14.7 8,12.1 3.5,14.7 4.6,9.7 0.8,6.3 5.8,5.8" fill="#FFC533"/></g><text x="28" y="0" font-family="'Fira Code','Cascadia Code','JetBrains Mono',Consolas,monospace" font-size="14" fill="#8FB3C7">Total Stars Earned:</text><text x="285" y="0" font-family="'Fira Code','Cascadia Code','JetBrains Mono',Consolas,monospace" font-size="14" font-weight="bold" fill="#00D9FF">0</text></g><g transform="translate(25,87)"><g transform="translate(0,-12)"><circle cx="8" cy="8" r="3" fill="none" stroke="#FFC533" stroke-width="2"/><line x1="0" y1="8" x2="4.5" y2="8" stroke="#FFC533" stroke-width="2"/><line x1="11.5" y1="8" x2="16" y2="8" stroke="#FFC533" stroke-width="2"/></g><text x="28" y="0" font-family="'Fira Code','Cascadia Code','JetBrains Mono',Consolas,monospace" font-size="14" fill="#8FB3C7">Commits (past year):</text><text x="285" y="0" font-family="'Fira Code','Cascadia Code','JetBrains Mono',Consolas,monospace" font-size="14" font-weight="bold" fill="#00D9FF">413</text></g><g transform="translate(25,112)"><g transform="translate(0,-12)"><circle cx="4" cy="3.5" r="2.2" fill="none" stroke="#FFC533" stroke-width="1.8"/><circle cx="4" cy="12.5" r="2.2" fill="none" stroke="#FFC533" stroke-width="1.8"/><line x1="4" y1="5.7" x2="4" y2="10.3" stroke="#FFC533" stroke-width="1.8"/><circle cx="12" cy="12.5" r="2.2" fill="none" stroke="#FFC533" stroke-width="1.8"/><path d="M12 10.3 V7 a3 3 0 0 0 -3 -3 h-1.5" fill="none" stroke="#FFC533" stroke-width="1.8"/></g><text x="28" y="0" font-family="'Fira Code','Cascadia Code','JetBrains Mono',Consolas,monospace" font-size="14" fill="#8FB3C7">Total PRs:</text><text x="285" y="0" font-family="'Fira Code','Cascadia Code','JetBrains Mono',Consolas,monospace" font-size="14" font-weight="bold" fill="#00D9FF">51</text></g><g transform="translate(25,137)"><g transform="translate(0,-12)"><circle cx="8" cy="8" r="6" fill="none" stroke="#FFC533" stroke-width="1.8"/><circle cx="8" cy="8" r="1.8" fill="#FFC533"/></g><text x="28" y="0" font-family="'Fira Code','Cascadia Code','JetBrains Mono',Consolas,monospace" font-size="14" fill="#8FB3C7">Total Issues:</text><text x="285" y="0" font-family="'Fira Code','Cascadia Code','JetBrains Mono',Consolas,monospace" font-size="14" font-weight="bold" fill="#00D9FF">1</text></g><g transform="translate(25,162)"><g transform="translate(0,-12)"><rect x="1" y="1" width="6" height="6" rx="1" fill="#FFC533"/><rect x="9" y="1" width="6" height="6" rx="1" fill="#FFC533" opacity="0.6"/><rect x="1" y="9" width="6" height="6" rx="1" fill="#FFC533" opacity="0.6"/><rect x="9" y="9" width="6" height="6" rx="1" fill="#FFC533"/></g><text x="28" y="0" font-family="'Fira Code','Cascadia Code','JetBrains Mono',Consolas,monospace" font-size="14" fill="#8FB3C7">Contributed To:</text><text x="285" y="0" font-family="'Fira Code','Cascadia Code','JetBrains Mono',Consolas,monospace" font-size="14" font-weight="bold" fill="#00D9FF">9</text></g><g><circle cx="415" cy="97" r="40" fill="none" stroke="#1E3A5F" stroke-width="7"/><circle cx="415" cy="97" r="40" fill="none" stroke="#00D9FF" stroke-width="7" stroke-linecap="round" stroke-dasharray="62.9 251.3" transform="rotate(-90 415 97)"/><text x="415" y="106" text-anchor="middle" font-family="'Fira Code','Cascadia Code','JetBrains Mono',Consolas,monospace" font-size="26" font-weight="bold" fill="#00D9FF">B-</text></g></svg>