<svg xmlns="http://www.w3.org/2000/svg" width="340" height="195" viewBox="0 0 340 195"><rect x="0.5" y="0.5" width="339" height="194" rx="4.5" fill="#0A1220" stroke="#1E3A5F"/><text x="25" y="35" font-family="'Fira Code','Cascadia Code','JetBrains Mono',Consolas,monospace" font-size="17" font-weight="bold" fill="#00D9FF">Most Used Languages</text><clipPath id="bar"><rect x="25" y="50" width="290" height="10" rx="5"/></clipPath><g clip-path="url(#bar)"><rect x="25.0" y="50" width="135.3" height="10" fill="#3572A5"/><rect x="160.3" y="50" width="94.1" height="10" fill="#f34b7d"/><rect x="254.4" y="50" width="37.3" height="10" fill="#3178c6"/><rect x="291.7" y="50" width="8.6" height="10" fill="#e34c26"/><rect x="300.3" y="50" width="4.5" height="10" fill="#555555"/><rect x="304.8" y="50" width="4.0" height="10" fill="#b07219"/><rect x="308.9" y="50" width="3.8" height="10" fill="#00D9FF"/><rect x="312.6" y="50" width="2.4" height="10" fill="#f1e05a"/></g><g><circle cx="30" cy="86" r="5" fill="#3572A5"/><text x="42" y="0" font-family="'Fira Code','Cascadia Code','JetBrains Mono',Consolas,monospace" font-size="12" fill="#8FB3C7" transform="translate(0,90)">Python</text><text x="42" y="0" dx="95" font-family="'Fira Code','Cascadia Code','JetBrains Mono',Consolas,monospace" font-size="12" font-weight="bold" fill="#00D9FF" transform="translate(0,90)">46.7%</text></g><g><circle cx="30" cy="109" r="5" fill="#f34b7d"/><text x="42" y="0" font-family="'Fira Code','Cascadia Code','JetBrains Mono',Consolas,monospace" font-size="12" fill="#8FB3C7" transform="translate(0,113)">C++</text><text x="42" y="0" dx="95" font-family="'Fira Code','Cascadia Code','JetBrains Mono',Consolas,monospace" font-size="12" font-weight="bold" fill="#00D9FF" transform="translate(0,113)">32.4%</text></g><g><circle cx="30" cy="132" r="5" fill="#3178c6"/><text x="42" y="0" font-family="'Fira Code','Cascadia Code','JetBrains Mono',Consolas,monospace" font-size="12" fill="#8FB3C7" transform="translate(0,136)">TypeScript</text><text x="42" y="0" dx="95" font-family="'Fira Code','Cascadia Code','JetBrains Mono',Consolas,monospace" font-size="12" font-weight="bold" fill="#00D9FF" transform="translate(0,136)">12.9%</text></g><g><circle cx="30" cy="155" r="5" fill="#e34c26"/><text x="42" y="0" font-family="'Fira Code','Cascadia Code','JetBrains Mono',Consolas,monospace" font-size="12" fill="#8FB3C7" transform="translate(0,159)">HTML</text><text x="42" y="0" dx="95" font-family="'Fira Code','Cascadia Code','JetBrains Mono',Consolas,monospace" font-size="12" font-weight="bold" fill="#00D9FF" transform="translate(0,159)">3.0%</text></g><g><circle cx="185" cy="86" r="5" fill="#555555"/><text x="197" y="0" font-family="'Fira Code','Cascadia Code','JetBrains Mono',Consolas,monospace" font-size="12" fill="#8FB3C7" transform="translate(0,90)">C</text><text x="197" y="0" dx="95" font-family="'Fira Code','Cascadia Code','JetBrains Mono',Consolas,monospace" font-size="12" font-weight="bold" fill="#00D9FF" transform="translate(0,90)">1.6%</text></g><g><circle cx="185" cy="109" r="5" fill="#b07219"/><text x="197" y="0" font-family="'Fira Code','Cascadia Code','JetBrains Mono',Consolas,monospace" font-size="12" fill="#8FB3C7" transform="translate(0,113)">Java</text><text x="197" y="0" dx="95" font-family="'Fira Code','Cascadia Code','JetBrains Mono',Consolas,monospace" font-size="12" font-weight="bold" fill="#00D9FF" transform="translate(0,113)">1.4%</text></g><g><circle cx="185" cy="132" r="5" fill="#00D9FF"/><text x="197" y="0" font-family="'Fira Code','Cascadia Code','JetBrains Mono',Consolas,monospace" font-size="12" fill="#8FB3C7" transform="translate(0,136)">NASL</text><text x="197" y="0" dx="95" font-family="'Fira Code','Cascadia Code','JetBrains Mono',Consolas,monospace" font-size="12" font-weight="bold" fill="#00D9FF" transform="translate(0,136)">1.3%</text></g><g><circle cx="185" cy="155" r="5" fill="#f1e05a"/><text x="197" y="0" font-family="'Fira Code','Cascadia Code','JetBrains Mono',Consolas,monospace" font-size="12" fill="#8FB3C7" transform="translate(0,159)">JavaScript</text><text x="197" y="0" dx="95" font-family="'Fira Code','Cascadia Code','JetBrains Mono',Consolas,monospace" font-size="12" font-weight="bold" fill="#00D9FF" transform="translate(0,159)">0.8%</text></g></svg>