<svg xmlns="http://www.w3.org/2000/svg" width="806" height="120" viewBox="0 0 806 120"><g transform="translate(0,0)"><rect x="0.5" y="0.5" width="109" height="119" rx="4.5" fill="#0A1220" stroke="#1E3A5F"/><g transform="translate(38,16)"><path d="M6 0 h22 v10 a11 11 0 0 1 -22 0 z" fill="#FFC533"/><path d="M6 2 h-5 a8 8 0 0 0 8 9 M28 2 h5 a8 8 0 0 1 -8 9" fill="none" stroke="#FFC533" stroke-width="2.5"/><rect x="14.5" y="20" width="5" height="7" fill="#FFC533"/><rect x="9" y="27" width="16" height="4" rx="1" fill="#FFC533"/></g><text x="55" y="72" text-anchor="middle" font-family="'Fira Code','Cascadia Code','JetBrains Mono',Consolas,monospace" font-size="18" font-weight="bold" fill="#00D9FF">AAA</text><text x="55" y="92" text-anchor="middle" font-family="'Fira Code','Cascadia Code','JetBrains Mono',Consolas,monospace" font-size="11" fill="#8FB3C7">Commits</text><text x="55" y="108" text-anchor="middle" font-family="'Fira Code','Cascadia Code','JetBrains Mono',Consolas,monospace" font-size="11" font-weight="bold" fill="#00D9FF">413</text></g><g transform="translate(116,0)"><rect x="0.5" y="0.5" width="109" height="119" rx="4.5" fill="#0A1220" stroke="#1E3A5F"/><g transform="translate(38,16)"><path d="M6 0 h22 v10 a11 11 0 0 1 -22 0 z" fill="#FFC533"/><path d="M6 2 h-5 a8 8 0 0 0 8 9 M28 2 h5 a8 8 0 0 1 -8 9" fill="none" stroke="#FFC533" stroke-width="2.5"/><rect x="14.5" y="20" width="5" height="7" fill="#FFC533"/><rect x="9" y="27" width="16" height="4" rx="1" fill="#FFC533"/></g><text x="55" y="72" text-anchor="middle" font-family="'Fira Code','Cascadia Code','JetBrains Mono',Consolas,monospace" font-size="18" font-weight="bold" fill="#8FB3C7">?</text><text x="55" y="92" text-anchor="middle" font-family="'Fira Code','Cascadia Code','JetBrains Mono',Consolas,monospace" font-size="11" fill="#8FB3C7">Stars</text><text x="55" y="108" text-anchor="middle" font-family="'Fira Code','Cascadia Code','JetBrains Mono',Consolas,monospace" font-size="11" font-weight="bold" fill="#00D9FF">0</text></g><g transform="translate(232,0)"><rect x="0.5" y="0.5" width="109" height="119" rx="4.5" fill="#0A1220" stroke="#1E3A5F"/><g transform="translate(38,16)"><path d="M6 0 h22 v10 a11 11 0 0 1 -22 0 z" fill="#FFC533"/><path d="M6 2 h-5 a8 8 0 0 0 8 9 M28 2 h5 a8 8 0 0 1 -8 9" fill="none" stroke="#FFC533" stroke-width="2.5"/><rect x="14.5" y="20" width="5" height="7" fill="#FFC533"/><rect x="9" y="27" width="16" height="4" rx="1" fill="#FFC533"/></g><text x="55" y="72" text-anchor="middle" font-family="'Fira Code','Cascadia Code','JetBrains Mono',Consolas,monospace" font-size="18" font-weight="bold" fill="#00D9FF">C</text><text x="55" y="92" text-anchor="middle" font-family="'Fira Code','Cascadia Code','JetBrains Mono',Consolas,monospace" font-size="11" fill="#8FB3C7">Followers</text><text x="55" y="108" text-anchor="middle" font-family="'Fira Code','Cascadia Code','JetBrains Mono',Consolas,monospace" font-size="11" font-weight="bold" fill="#00D9FF">1</text></g><g transform="translate(348,0)"><rect x="0.5" y="0.5" width="109" height="119" rx="4.5" fill="#0A1220" stroke="#1E3A5F"/><g transform="translate(38,16)"><path d="M6 0 h22 v10 a11 11 0 0 1 -22 0 z" fill="#FFC533"/><path d="M6 2 h-5 a8 8 0 0 0 8 9 M28 2 h5 a8 8 0 0 1 -8 9" fill="none" stroke="#FFC533" stroke-width="2.5"/><rect x="14.5" y="20" width="5" height="7" fill="#FFC533"/><rect x="9" y="27" width="16" height="4" rx="1" fill="#FFC533"/></g><text x="55" y="72" text-anchor="middle" font-family="'Fira Code','Cascadia Code','JetBrains Mono',Consolas,monospace" font-size="18" font-weight="bold" fill="#00D9FF">AAA</text><text x="55" y="92" text-anchor="middle" font-family="'Fira Code','Cascadia Code','JetBrains Mono',Consolas,monospace" font-size="11" fill="#8FB3C7">Repos</text><text x="55" y="108" text-anchor="middle" font-family="'Fira Code','Cascadia Code','JetBrains Mono',Consolas,monospace" font-size="11" font-weight="bold" fill="#00D9FF">21</text></g><g transform="translate(464,0)"><rect x="0.5" y="0.5" width="109" height="119" rx="4.5" fill="#0A1220" stroke="#1E3A5F"/><g transform="translate(38,16)"><path d="M6 0 h22 v10 a11 11 0 0 1 -22 0 z" fill="#FFC533"/><path d="M6 2 h-5 a8 8 0 0 0 8 9 M28 2 h5 a8 8 0 0 1 -8 9" fill="none" stroke="#FFC533" stroke-width="2.5"/><rect x="14.5" y="20" width="5" height="7" fill="#FFC533"/><rect x="9" y="27" width="16" height="4" rx="1" fill="#FFC533"/></g><text x="55" y="72" text-anchor="middle" font-family="'Fira Code','Cascadia Code','JetBrains Mono',Consolas,monospace" font-size="18" font-weight="bold" fill="#00D9FF">SS</text><text x="55" y="92" text-anchor="middle" font-family="'Fira Code','Cascadia Code','JetBrains Mono',Consolas,monospace" font-size="11" fill="#8FB3C7">PRs</text><text x="55" y="108" text-anchor="middle" font-family="'Fira Code','Cascadia Code','JetBrains Mono',Consolas,monospace" font-size="11" font-weight="bold" fill="#00D9FF">51</text></g><g transform="translate(580,0)"><rect x="0.5" y="0.5" width="109" height="119" rx="4.5" fill="#0A1220" stroke="#1E3A5F"/><g transform="translate(38,16)"><path d="M6 0 h22 v10 a11 11 0 0 1 -22 0 z" fill="#FFC533"/><path d="M6 2 h-5 a8 8 0 0 0 8 9 M28 2 h5 a8 8 0 0 1 -8 9" fill="none" stroke="#FFC533" stroke-width="2.5"/><rect x="14.5" y="20" width="5" height="7" fill="#FFC533"/><rect x="9" y="27" width="16" height="4" rx="1" fill="#FFC533"/></g><text x="55" y="72" text-anchor="middle" font-family="'Fira Code','Cascadia Code','JetBrains Mono',Consolas,monospace" font-size="18" font-weight="bold" fill="#00D9FF">C</text><text x="55" y="92" text-anchor="middle" font-family="'Fira Code','Cascadia Code','JetBrains Mono',Consolas,monospace" font-size="11" fill="#8FB3C7">Issues</text><text x="55" y="108" text-anchor="middle" font-family="'Fira Code','Cascadia Code','JetBrains Mono',Consolas,monospace" font-size="11" font-weight="bold" fill="#00D9FF">1</text></g><g transform="translate(696,0)"><rect x="0.5" y="0.5" width="109" height="119" rx="4.5" fill="#0A1220" stroke="#1E3A5F"/><g transform="translate(38,16)"><path d="M6 0 h22 v10 a11 11 0 0 1 -22 0 z" fill="#FFC533"/><path d="M6 2 h-5 a8 8 0 0 0 8 9 M28 2 h5 a8 8 0 0 1 -8 9" fill="none" stroke="#FFC533" stroke-width="2.5"/><rect x="14.5" y="20" width="5" height="7" fill="#FFC533"/><rect x="9" y="27" width="16" height="4" rx="1" fill="#FFC533"/></g><text x="55" y="72" text-anchor="middle" font-family="'Fira Code','Cascadia Code','JetBrains Mono',Consolas,monospace" font-size="18" font-weight="bold" fill="#00D9FF">AAA</text><text x="55" y="92" text-anchor="middle" font-family="'Fira Code','Cascadia Code','JetBrains Mono',Consolas,monospace" font-size="11" fill="#8FB3C7">Contribs</text><text x="55" y="108" text-anchor="middle" font-family="'Fira Code','Cascadia Code','JetBrains Mono',Consolas,monospace" font-size="11" font-weight="bold" fill="#00D9FF">9</text></g></svg>